<svg width="29" height="35" viewBox="0 0 29 35" fill="none" xmlns="http://www.w3.org/2000/svg">
<path d="M24.2455 18.4963C24.2289 15.6274 25.5109 13.4652 28.0997 11.8709C26.6518 9.76765 24.4612 8.61084 21.5737 8.38789C18.8396 8.16915 15.8484 10.0032 14.7531 10.0032C13.5956 10.0032 10.9486 8.46361 8.86595 8.46361C4.56781 8.53092 0 11.9382 0 18.8707C0 20.9193 0.369242 23.0352 1.10773 25.2142C2.09514 28.083 5.65479 35.1122 9.36795 34.9986C11.3096 34.9524 12.6828 33.6021 15.2094 33.6021C17.6614 33.6021 18.9309 34.9986 21.0966 34.9986C24.8429 34.944 28.0624 28.5542 29 25.6769C23.9758 23.2749 24.2455 18.6435 24.2455 18.4963ZM19.8851 5.66625C21.9886 3.13389 21.7977 0.828694 21.7355 0C19.8768 0.109371 17.7278 1.283 16.5039 2.72586C15.1555 4.27387 14.3631 6.18786 14.5332 8.34583C16.5412 8.50147 18.375 7.45404 19.8851 5.66625Z" fill="#969696"/>
</svg>
