<svg width="34" height="35" viewBox="0 0 34 35" fill="none" xmlns="http://www.w3.org/2000/svg">
<path d="M30.8913 14.6439H29.7502V14.5834H17.0002V20.4167H25.0065C23.8384 23.8124 20.6998 26.25 17.0002 26.25C12.306 26.25 8.50016 22.3322 8.50016 17.5C8.50016 12.6678 12.306 8.75002 17.0002 8.75002C19.167 8.75002 21.1382 9.59148 22.6392 10.966L26.6462 6.84106C24.1161 4.41367 20.7317 2.91669 17.0002 2.91669C9.17662 2.91669 2.8335 9.44637 2.8335 17.5C2.8335 25.5537 9.17662 32.0834 17.0002 32.0834C24.8237 32.0834 31.1668 25.5537 31.1668 17.5C31.1668 16.5222 31.0691 15.5677 30.8913 14.6439Z" fill="#969696"/>
<path d="M4.4668 10.7122L9.12125 14.2261C10.3807 11.0163 13.4308 8.75002 17 8.75002C19.1668 8.75002 21.1381 9.59148 22.6391 10.966L26.6461 6.84106C24.116 4.41367 20.7315 2.91669 17 2.91669C11.5586 2.91669 6.83971 6.07908 4.4668 10.7122Z" fill="#969696"/>
<path d="M17.0001 32.0833C20.6593 32.0833 23.9842 30.6418 26.4981 28.2975L22.1135 24.4781C20.6434 25.629 18.847 26.2515 17.0001 26.25C13.3153 26.25 10.1866 23.8314 9.00793 20.4561L4.38818 24.1201C6.73277 28.8429 11.4942 32.0833 17.0001 32.0833Z" fill="#969696"/>
<path d="M30.8911 14.6438H29.75V14.5833H17V20.4166H25.0063C24.4476 22.0328 23.4411 23.445 22.1113 24.4788L22.1135 24.4774L26.498 28.2968C26.1878 28.587 31.1667 24.7916 31.1667 17.5C31.1667 16.5222 31.0689 15.5677 30.8911 14.6438Z" fill="#969696"/>
</svg>
